# xmcd CD database file
# Copyright (C) 1995 Ti Kan
#
# Track frame offsets:
#	150
#	24875
#	45325
#	74335
#	103615
#	144347
#	163362
#	182950
#	201620
#
# Disc length: 2965 seconds
#
# Revision: 1
# Processed by: cddbd v1.4b41PL1 Copyright (c) Steve Scherf et al.
# Submitted via: xmcd 1.4
#
DISCID=7f0b9309
DTITLE=Albert King - John Lee Hooker - I'll Play The Blues For You
DYEAR=1900
DGENRE=
TTITLE0=Born Under A Bad Sign
TTITLE1=The Very Thought Of You
TTITLE2=I Worked Hard
TTITLE3=When You're Down
TTITLE4=Feel Good
TTITLE5=Boom Boom
TTITLE6=Serves Me Right
TTITLE7=One Bourbon, One Scotch, One Beer
TTITLE8=King Snake
EXTD=
EXTT0=
EXTT1=
EXTT2=
EXTT3=
EXTT4=
EXTT5=
EXTT6=
EXTT7=
EXTT8=
PLAYORDER=
